<mxfile host="65bd71144e">
    <diagram id="a0hrWt0J-FxsfvXapJeO" name="Page-1">
        <mxGraphModel dx="2453" dy="907" grid="1" gridSize="10" guides="1" tooltips="1" connect="1" arrows="1" fold="1" page="1" pageScale="1" pageWidth="850" pageHeight="1100" math="0" shadow="0">
            <root>
                <mxCell id="0"/>
                <mxCell id="1" parent="0"/>
                <mxCell id="2" value="&lt;b&gt;users&lt;/b&gt;" style="whiteSpace=wrap;html=1;strokeWidth=3;" parent="1" vertex="1">
                    <mxGeometry x="280" y="80" width="160" height="40" as="geometry"/>
                </mxCell>
                <mxCell id="4" value="first_name" style="whiteSpace=wrap;html=1;" parent="1" vertex="1">
                    <mxGeometry x="280" y="161" width="160" height="40" as="geometry"/>
                </mxCell>
                <mxCell id="5" value="last_name" style="whiteSpace=wrap;html=1;" parent="1" vertex="1">
                    <mxGeometry x="280" y="200" width="160" height="41" as="geometry"/>
                </mxCell>
                <mxCell id="6" value="email" style="whiteSpace=wrap;html=1;" parent="1" vertex="1">
                    <mxGeometry x="280" y="241" width="160" height="40" as="geometry"/>
                </mxCell>
                <mxCell id="7" value="password" style="whiteSpace=wrap;html=1;" parent="1" vertex="1">
                    <mxGeometry x="280" y="281" width="160" height="40" as="geometry"/>
                </mxCell>
                <mxCell id="8" value="adress" style="whiteSpace=wrap;html=1;" parent="1" vertex="1">
                    <mxGeometry x="280" y="321" width="160" height="40" as="geometry"/>
                </mxCell>
                <mxCell id="9" value="phone_number" style="whiteSpace=wrap;html=1;" parent="1" vertex="1">
                    <mxGeometry x="280" y="361" width="160" height="40" as="geometry"/>
                </mxCell>
                <mxCell id="10" value="&lt;b&gt;products&lt;/b&gt;" style="whiteSpace=wrap;html=1;strokeWidth=3;" parent="1" vertex="1">
                    <mxGeometry x="-440" y="80" width="160" height="40" as="geometry"/>
                </mxCell>
                <mxCell id="203" style="edgeStyle=none;html=1;entryX=0;entryY=0.5;entryDx=0;entryDy=0;exitX=1;exitY=0.5;exitDx=0;exitDy=0;" edge="1" parent="1" source="11" target="167">
                    <mxGeometry relative="1" as="geometry">
                        <mxPoint x="-250" y="211" as="sourcePoint"/>
                    </mxGeometry>
                </mxCell>
                <mxCell id="204" style="edgeStyle=none;html=1;entryX=0;entryY=0.5;entryDx=0;entryDy=0;exitX=1;exitY=0.5;exitDx=0;exitDy=0;" edge="1" parent="1" source="11" target="194">
                    <mxGeometry relative="1" as="geometry"/>
                </mxCell>
                <mxCell id="11" value="product_id" style="whiteSpace=wrap;html=1;" parent="1" vertex="1">
                    <mxGeometry x="-440" y="121" width="160" height="40" as="geometry"/>
                </mxCell>
                <mxCell id="12" value="product_name" style="whiteSpace=wrap;html=1;" parent="1" vertex="1">
                    <mxGeometry x="-440" y="161" width="160" height="40" as="geometry"/>
                </mxCell>
                <mxCell id="13" value="description" style="whiteSpace=wrap;html=1;" parent="1" vertex="1">
                    <mxGeometry x="-440" y="201" width="160" height="40" as="geometry"/>
                </mxCell>
                <mxCell id="14" value="price" style="whiteSpace=wrap;html=1;" parent="1" vertex="1">
                    <mxGeometry x="-440" y="241" width="160" height="40" as="geometry"/>
                </mxCell>
                <mxCell id="16" value="category_id" style="whiteSpace=wrap;html=1;" parent="1" vertex="1">
                    <mxGeometry x="-440" y="281" width="160" height="40" as="geometry"/>
                </mxCell>
                <mxCell id="40" value="available_quantity" style="whiteSpace=wrap;html=1;" parent="1" vertex="1">
                    <mxGeometry x="-440" y="360" width="160" height="40" as="geometry"/>
                </mxCell>
                <mxCell id="82" value="&lt;b&gt;categories&lt;/b&gt;" style="whiteSpace=wrap;html=1;strokeWidth=3;" parent="1" vertex="1">
                    <mxGeometry x="-680" y="282.5" width="160" height="38" as="geometry"/>
                </mxCell>
                <mxCell id="202" style="edgeStyle=none;html=1;exitX=1;exitY=0.5;exitDx=0;exitDy=0;entryX=0;entryY=0.5;entryDx=0;entryDy=0;" edge="1" parent="1" source="83" target="16">
                    <mxGeometry relative="1" as="geometry"/>
                </mxCell>
                <mxCell id="83" value="category_id" style="whiteSpace=wrap;html=1;" parent="1" vertex="1">
                    <mxGeometry x="-680" y="321.5" width="160" height="40" as="geometry"/>
                </mxCell>
                <mxCell id="84" value="category_name" style="whiteSpace=wrap;html=1;" parent="1" vertex="1">
                    <mxGeometry x="-680" y="361.5" width="160" height="40" as="geometry"/>
                </mxCell>
                <mxCell id="88" value="image_path" style="whiteSpace=wrap;html=1;" parent="1" vertex="1">
                    <mxGeometry x="-440" y="321" width="160" height="40" as="geometry"/>
                </mxCell>
                <mxCell id="164" style="edgeStyle=none;html=1;exitX=0;exitY=0.5;exitDx=0;exitDy=0;entryX=1;entryY=0.5;entryDx=0;entryDy=0;" parent="1" target="162" edge="1">
                    <mxGeometry relative="1" as="geometry">
                        <mxPoint x="160" y="507" as="sourcePoint"/>
                    </mxGeometry>
                </mxCell>
                <mxCell id="225" style="edgeStyle=none;html=1;exitX=1;exitY=0.5;exitDx=0;exitDy=0;entryX=0;entryY=0.5;entryDx=0;entryDy=0;" edge="1" parent="1" source="136" target="221">
                    <mxGeometry relative="1" as="geometry"/>
                </mxCell>
                <mxCell id="228" style="edgeStyle=none;html=1;exitX=0;exitY=0.5;exitDx=0;exitDy=0;entryX=1;entryY=0.5;entryDx=0;entryDy=0;" edge="1" parent="1" source="136" target="162">
                    <mxGeometry relative="1" as="geometry"/>
                </mxCell>
                <mxCell id="136" value="user_id" style="whiteSpace=wrap;html=1;" parent="1" vertex="1">
                    <mxGeometry x="280" y="120" width="160" height="40" as="geometry"/>
                </mxCell>
                <mxCell id="160" value="&lt;b&gt;orders&lt;/b&gt;" style="whiteSpace=wrap;html=1;strokeWidth=3;" parent="1" vertex="1">
                    <mxGeometry x="40" y="280.5" width="160" height="38" as="geometry"/>
                </mxCell>
                <mxCell id="190" style="edgeStyle=none;html=1;exitX=1;exitY=0.5;exitDx=0;exitDy=0;entryX=0;entryY=0.5;entryDx=0;entryDy=0;" parent="1" target="172" edge="1">
                    <mxGeometry relative="1" as="geometry">
                        <mxPoint x="-158" y="572" as="sourcePoint"/>
                    </mxGeometry>
                </mxCell>
                <mxCell id="213" style="edgeStyle=none;html=1;entryX=1;entryY=0.5;entryDx=0;entryDy=0;exitX=0;exitY=0.5;exitDx=0;exitDy=0;" edge="1" parent="1" source="161" target="172">
                    <mxGeometry relative="1" as="geometry">
                        <mxPoint x="80" y="341" as="sourcePoint"/>
                    </mxGeometry>
                </mxCell>
                <mxCell id="214" style="edgeStyle=none;html=1;exitX=0;exitY=0.5;exitDx=0;exitDy=0;entryX=1;entryY=0.5;entryDx=0;entryDy=0;" edge="1" parent="1" source="161" target="166">
                    <mxGeometry relative="1" as="geometry"/>
                </mxCell>
                <mxCell id="161" value="order_id" style="whiteSpace=wrap;html=1;" parent="1" vertex="1">
                    <mxGeometry x="40" y="318.5" width="160" height="40" as="geometry"/>
                </mxCell>
                <mxCell id="162" value="user_id" style="whiteSpace=wrap;html=1;" parent="1" vertex="1">
                    <mxGeometry x="40" y="358.5" width="160" height="40" as="geometry"/>
                </mxCell>
                <mxCell id="163" value="total_price" style="whiteSpace=wrap;html=1;" parent="1" vertex="1">
                    <mxGeometry x="40" y="398.5" width="160" height="40" as="geometry"/>
                </mxCell>
                <mxCell id="165" value="&lt;b&gt;orders_products&lt;/b&gt;" style="whiteSpace=wrap;html=1;strokeWidth=3;" parent="1" vertex="1">
                    <mxGeometry x="-200" y="80" width="160" height="38" as="geometry"/>
                </mxCell>
                <mxCell id="166" value="order_id" style="whiteSpace=wrap;html=1;" parent="1" vertex="1">
                    <mxGeometry x="-200" y="118" width="160" height="40" as="geometry"/>
                </mxCell>
                <mxCell id="167" value="product_id" style="whiteSpace=wrap;html=1;" parent="1" vertex="1">
                    <mxGeometry x="-200" y="158" width="160" height="40" as="geometry"/>
                </mxCell>
                <mxCell id="171" value="&lt;b&gt;orders_baskets&lt;/b&gt;" style="whiteSpace=wrap;html=1;strokeWidth=3;" parent="1" vertex="1">
                    <mxGeometry x="-200" y="482" width="160" height="38" as="geometry"/>
                </mxCell>
                <mxCell id="172" value="order_id" style="whiteSpace=wrap;html=1;" parent="1" vertex="1">
                    <mxGeometry x="-200" y="521" width="160" height="40" as="geometry"/>
                </mxCell>
                <mxCell id="173" value="basket_id" style="whiteSpace=wrap;html=1;" parent="1" vertex="1">
                    <mxGeometry x="-200" y="561" width="160" height="40" as="geometry"/>
                </mxCell>
                <mxCell id="174" value="&lt;b&gt;baskets&lt;/b&gt;" style="whiteSpace=wrap;html=1;strokeWidth=3;" parent="1" vertex="1">
                    <mxGeometry x="-440" y="440" width="160" height="40" as="geometry"/>
                </mxCell>
                <mxCell id="206" style="edgeStyle=none;html=1;exitX=1;exitY=0.5;exitDx=0;exitDy=0;entryX=0;entryY=0.5;entryDx=0;entryDy=0;" edge="1" parent="1" source="175" target="193">
                    <mxGeometry relative="1" as="geometry"/>
                </mxCell>
                <mxCell id="209" style="edgeStyle=none;html=1;exitX=1;exitY=0.5;exitDx=0;exitDy=0;entryX=0;entryY=0.5;entryDx=0;entryDy=0;" edge="1" parent="1" source="175" target="173">
                    <mxGeometry relative="1" as="geometry"/>
                </mxCell>
                <mxCell id="175" value="basket_id" style="whiteSpace=wrap;html=1;" parent="1" vertex="1">
                    <mxGeometry x="-440" y="481" width="160" height="40" as="geometry"/>
                </mxCell>
                <mxCell id="176" value="basket_name" style="whiteSpace=wrap;html=1;" parent="1" vertex="1">
                    <mxGeometry x="-440" y="521" width="160" height="40" as="geometry"/>
                </mxCell>
                <mxCell id="177" value="description" style="whiteSpace=wrap;html=1;" parent="1" vertex="1">
                    <mxGeometry x="-440" y="561" width="160" height="40" as="geometry"/>
                </mxCell>
                <mxCell id="178" value="price" style="whiteSpace=wrap;html=1;" parent="1" vertex="1">
                    <mxGeometry x="-440" y="601" width="160" height="40" as="geometry"/>
                </mxCell>
                <mxCell id="181" value="image_path" style="whiteSpace=wrap;html=1;" parent="1" vertex="1">
                    <mxGeometry x="-440" y="641" width="160" height="40" as="geometry"/>
                </mxCell>
                <mxCell id="192" value="&lt;b&gt;baskets_&lt;/b&gt;&lt;b&gt;products&lt;/b&gt;" style="whiteSpace=wrap;html=1;strokeWidth=3;" parent="1" vertex="1">
                    <mxGeometry x="-200" y="282.5" width="160" height="38" as="geometry"/>
                </mxCell>
                <mxCell id="193" value="basket_id" style="whiteSpace=wrap;html=1;" parent="1" vertex="1">
                    <mxGeometry x="-200" y="361.5" width="160" height="40" as="geometry"/>
                </mxCell>
                <mxCell id="194" value="product_id" style="whiteSpace=wrap;html=1;" parent="1" vertex="1">
                    <mxGeometry x="-200" y="321.5" width="160" height="40" as="geometry"/>
                </mxCell>
                <mxCell id="198" value="order_date" style="whiteSpace=wrap;html=1;" parent="1" vertex="1">
                    <mxGeometry x="40" y="438.5" width="160" height="40" as="geometry"/>
                </mxCell>
                <mxCell id="199" value="status_id" style="whiteSpace=wrap;html=1;" parent="1" vertex="1">
                    <mxGeometry x="40" y="478.5" width="160" height="40" as="geometry"/>
                </mxCell>
                <mxCell id="200" value="quantity&lt;span style=&quot;color: rgba(0, 0, 0, 0); font-family: monospace; font-size: 0px; text-align: start;&quot;&gt;%3CmxGraphModel%3E%3Croot%3E%3CmxCell%20id%3D%220%22%2F%3E%3CmxCell%20id%3D%221%22%20parent%3D%220%22%2F%3E%3CmxCell%20id%3D%222%22%20value%3D%22product_id%22%20style%3D%22whiteSpace%3Dwrap%3Bhtml%3D1%3B%22%20vertex%3D%221%22%20parent%3D%221%22%3E%3CmxGeometry%20x%3D%22-160%22%20y%3D%22117%22%20width%3D%22160%22%20height%3D%2240%22%20as%3D%22geometry%22%2F%3E%3C%2FmxCell%3E%3C%2Froot%3E%3C%2FmxGraphModel%3E&lt;/span&gt;" style="whiteSpace=wrap;html=1;" vertex="1" parent="1">
                    <mxGeometry x="-200" y="198" width="160" height="40" as="geometry"/>
                </mxCell>
                <mxCell id="201" value="quantity&lt;span style=&quot;color: rgba(0, 0, 0, 0); font-family: monospace; font-size: 0px; text-align: start;&quot;&gt;%3CmxGraphModel%3E%3Croot%3E%3CmxCell%20id%3D%220%22%2F%3E%3CmxCell%20id%3D%221%22%20parent%3D%220%22%2F%3E%3CmxCell%20id%3D%222%22%20value%3D%22product_id%22%20style%3D%22whiteSpace%3Dwrap%3Bhtml%3D1%3B%22%20vertex%3D%221%22%20parent%3D%221%22%3E%3CmxGeometry%20x%3D%22-160%22%20y%3D%22117%22%20width%3D%22160%22%20height%3D%2240%22%20as%3D%22geometry%22%2F%3E%3C%2FmxCell%3E%3C%2Froot%3E%3C%2FmxGraphModel%3E&lt;/span&gt;" style="whiteSpace=wrap;html=1;" vertex="1" parent="1">
                    <mxGeometry x="-200" y="601" width="160" height="40" as="geometry"/>
                </mxCell>
                <mxCell id="207" value="quantity&lt;span style=&quot;color: rgba(0, 0, 0, 0); font-family: monospace; font-size: 0px; text-align: start;&quot;&gt;%3CmxGraphModel%3E%3Croot%3E%3CmxCell%20id%3D%220%22%2F%3E%3CmxCell%20id%3D%221%22%20parent%3D%220%22%2F%3E%3CmxCell%20id%3D%222%22%20value%3D%22product_id%22%20style%3D%22whiteSpace%3Dwrap%3Bhtml%3D1%3B%22%20vertex%3D%221%22%20parent%3D%221%22%3E%3CmxGeometry%20x%3D%22-160%22%20y%3D%22117%22%20width%3D%22160%22%20height%3D%2240%22%20as%3D%22geometry%22%2F%3E%3C%2FmxCell%3E%3C%2Froot%3E%3C%2FmxGraphModel%3E&lt;/span&gt;" style="whiteSpace=wrap;html=1;" vertex="1" parent="1">
                    <mxGeometry x="-200" y="401.5" width="160" height="40" as="geometry"/>
                </mxCell>
                <mxCell id="215" value="&lt;b&gt;status&lt;/b&gt;" style="whiteSpace=wrap;html=1;strokeWidth=3;" vertex="1" parent="1">
                    <mxGeometry x="280" y="521" width="160" height="38" as="geometry"/>
                </mxCell>
                <mxCell id="218" style="edgeStyle=none;html=1;exitX=0;exitY=0.5;exitDx=0;exitDy=0;entryX=1;entryY=0.5;entryDx=0;entryDy=0;" edge="1" parent="1" source="216" target="199">
                    <mxGeometry relative="1" as="geometry"/>
                </mxCell>
                <mxCell id="216" value="status_id" style="whiteSpace=wrap;html=1;" vertex="1" parent="1">
                    <mxGeometry x="280" y="560" width="160" height="40" as="geometry"/>
                </mxCell>
                <mxCell id="217" value="status_name" style="whiteSpace=wrap;html=1;" vertex="1" parent="1">
                    <mxGeometry x="280" y="600" width="160" height="40" as="geometry"/>
                </mxCell>
                <mxCell id="219" value="&lt;b&gt;reviews&lt;/b&gt;" style="whiteSpace=wrap;html=1;strokeWidth=3;" vertex="1" parent="1">
                    <mxGeometry x="520" y="284" width="160" height="38" as="geometry"/>
                </mxCell>
                <mxCell id="220" value="&lt;b&gt;reviews_id&lt;/b&gt;" style="whiteSpace=wrap;html=1;" vertex="1" parent="1">
                    <mxGeometry x="520" y="323" width="160" height="40" as="geometry"/>
                </mxCell>
                <mxCell id="221" value="user_id" style="whiteSpace=wrap;html=1;" vertex="1" parent="1">
                    <mxGeometry x="520" y="363" width="160" height="40" as="geometry"/>
                </mxCell>
                <mxCell id="222" value="content" style="whiteSpace=wrap;html=1;" vertex="1" parent="1">
                    <mxGeometry x="520" y="403" width="160" height="40" as="geometry"/>
                </mxCell>
                <mxCell id="223" value="rating" style="whiteSpace=wrap;html=1;" vertex="1" parent="1">
                    <mxGeometry x="520" y="441.5" width="160" height="40" as="geometry"/>
                </mxCell>
                <mxCell id="224" value="review_date" style="whiteSpace=wrap;html=1;" vertex="1" parent="1">
                    <mxGeometry x="520" y="481" width="160" height="40" as="geometry"/>
                </mxCell>
                <mxCell id="226" value="role" style="whiteSpace=wrap;html=1;" vertex="1" parent="1">
                    <mxGeometry x="280" y="400" width="160" height="40" as="geometry"/>
                </mxCell>
                <mxCell id="227" value="registration_date" style="whiteSpace=wrap;html=1;" vertex="1" parent="1">
                    <mxGeometry x="280" y="440" width="160" height="40" as="geometry"/>
                </mxCell>
            </root>
        </mxGraphModel>
    </diagram>
</mxfile>